<svg width="30" height="30" viewBox="0 0 30 30" fill="none" xmlns="http://www.w3.org/2000/svg">
<g id="calendar 1">
<g id="Group">
<path id="Vector" d="M18.5157 14.3437C17.4376 15.4219 16.4063 16.4531 15.3282 17.5312C14.672 16.875 13.9688 16.1719 13.3126 15.5156C12.4688 14.6719 11.1095 15.9844 12.0001 16.8281C12.8907 17.7187 13.7813 18.6094 14.672 19.5C15.047 19.875 15.6563 19.875 15.9845 19.5L19.8282 15.6562C20.7188 14.8125 19.4063 13.5 18.5157 14.3437Z" fill="white"/>
<path id="Vector_2" d="M24.1875 4.125C24.1875 4.03125 24.1875 3.9375 24.1875 3.84375C24.1875 3.375 23.7656 2.90625 23.25 2.90625C22.7344 2.90625 22.3125 3.32812 22.3125 3.84375V4.125H10.7344V4.07812C10.7344 3.98438 10.7344 3.89063 10.7344 3.79688C10.7344 3.32813 10.3125 2.85938 9.79688 2.85938C9.28125 2.85938 8.85938 3.28125 8.85938 3.79688V4.17187C6.70312 4.17187 4.92188 5.95312 4.92188 8.10937V11.7188C4.875 11.8594 4.82812 11.9531 4.82812 12.0937C4.54688 14.1094 4.07813 16.125 3.42188 18.0469C3.09375 18.9375 2.71875 19.875 2.29688 20.7188C1.92188 21.5156 1.96875 22.4062 2.4375 23.1094C2.90625 23.8125 3.65625 24.2344 4.5 24.2344H5.01562C5.4375 25.9688 6.98438 27.2344 8.85938 27.2344H24.0469C26.2031 27.2344 27.9844 25.4531 27.9844 23.2969V8.0625C27.9844 5.90625 26.2969 4.21875 24.1875 4.125ZM8.8125 6V6.1875C8.8125 6.65625 9.23437 7.125 9.75 7.125C10.2656 7.125 10.6875 6.70312 10.6875 6.1875C10.6875 6.14062 10.6875 6.04688 10.6875 6H22.3125V6.28125C22.3125 6.75 22.7344 7.21875 23.25 7.21875C23.7656 7.21875 24.1875 6.79687 24.1875 6.28125C24.1875 6.1875 24.1875 6.09375 24.1875 6C25.2656 6.09375 26.1094 6.98438 26.1094 8.0625V10.3125C26.0625 10.3125 25.9688 10.3125 25.9219 10.3125H6.75V8.0625C6.75 6.89062 7.6875 6 8.8125 6ZM3.98438 22.0781C3.89062 21.8906 3.84375 21.7031 3.9375 21.5156C4.35937 20.5781 4.78125 19.6406 5.10937 18.6562C5.8125 16.5938 6.32812 14.4844 6.60938 12.3281C6.60938 12.2812 6.65625 12.2344 6.70312 12.2344H25.875C25.875 12.2344 25.9219 12.2344 25.9688 12.2812C25.9688 12.2812 26.0156 12.3281 26.0156 12.375C25.7812 14.4844 25.3125 16.5469 24.6562 18.5156C24.3281 19.5 23.9062 20.4844 23.4375 21.4688C23.1562 22.0312 22.5469 22.4062 21.8906 22.4062H4.5C4.26562 22.3125 4.07812 22.2188 3.98438 22.0781ZM24.0469 25.3125H8.8125C8.01562 25.3125 7.35938 24.8438 6.98438 24.1875H21.8438C23.2031 24.1875 24.4688 23.3906 25.0781 22.1719C25.4531 21.4219 25.7812 20.625 26.0625 19.8281V23.25C26.1094 24.375 25.1719 25.3125 24.0469 25.3125Z" fill="white"/>
</g>
</g>
</svg>
