<svg width="60" height="60" viewBox="0 0 60 60" fill="none" xmlns="http://www.w3.org/2000/svg">
<g id="price-tag (1) 1" clip-path="url(#clip0_103_1245)">
<g id="Price_Tag_1_">
<g id="Group">
<path id="Vector" d="M8.75573 36.7478L35.3054 10.198C37.136 8.36741 40.104 8.36741 41.9345 10.198L36.8955 5.15894C35.0649 3.32837 32.0969 3.32837 30.2663 5.15894L3.71668 31.7087C1.88611 33.5393 1.88611 36.5073 3.71668 38.3378L8.75573 43.3768C6.92515 41.5462 6.92515 38.5783 8.75573 36.7478Z" fill="#EEF1FB"/>
</g>
<path id="Vector_2" d="M50.1537 18.4171C51.9843 20.2477 51.9843 23.2157 50.1537 25.0463L23.6039 51.5959C21.7733 53.4265 18.8053 53.4265 16.9748 51.5959L3.71668 38.3378C1.88611 36.5072 1.88611 33.5392 3.71668 31.7086L30.2663 5.15894C32.0969 3.32836 35.0649 3.32836 36.8955 5.15894L43.5247 11.7881L52.9689 2.34387" stroke="#405FF2" stroke-width="3" stroke-miterlimit="10" stroke-linecap="round" stroke-linejoin="round"/>
<path id="Vector_3" d="M18.9633 31.0458C18.7631 32.4554 19.2051 33.9388 20.2894 35.0231C22.12 36.8537 25.088 36.8537 26.9186 35.0231C28.7492 33.1926 28.7492 30.2246 26.9186 28.394C25.088 26.5634 25.088 23.5954 26.9186 21.7648C28.7492 19.9342 31.7172 19.9342 33.5478 21.7648C34.6321 22.8491 35.0742 24.3325 34.8739 25.7421" stroke="#405FF2" stroke-width="3" stroke-miterlimit="10" stroke-linecap="round" stroke-linejoin="round"/>
<path id="Vector_4" d="M16.9751 38.3377L20.2896 35.0232" stroke="#405FF2" stroke-width="3" stroke-miterlimit="10" stroke-linecap="round" stroke-linejoin="round"/>
<path id="Vector_5" d="M33.5474 21.7651L36.8619 18.4504" stroke="#405FF2" stroke-width="3" stroke-miterlimit="10" stroke-linecap="round" stroke-linejoin="round"/>
<path id="Vector_6" d="M43.5938 57.6562L57.6562 43.5938" stroke="#FF5CF4" stroke-width="3" stroke-miterlimit="10" stroke-linecap="round" stroke-linejoin="round"/>
</g>
</g>
<defs>
<clipPath id="clip0_103_1245">
<rect width="60" height="60" fill="white"/>
</clipPath>
</defs>
</svg>
